<svg xmlns="http://www.w3.org/2000/svg" xmlns:xlink="http://www.w3.org/1999/xlink" width="2000" zoomAndPan="magnify" viewBox="0 0 1500 1499.999933" height="2000" preserveAspectRatio="xMidYMid meet" version="1.0"><defs><clipPath id="5393e4b86b"><path d="M 75 0 L 1425 0 C 1466.421875 0 1500 33.578125 1500 75 L 1500 1425 C 1500 1466.421875 1466.421875 1500 1425 1500 L 75 1500 C 33.578125 1500 0 1466.421875 0 1425 L 0 75 C 0 33.578125 33.578125 0 75 0 Z M 75 0 " clip-rule="nonzero"/></clipPath><clipPath id="80cf8b42ee"><path d="M 0 0 L 1500 0 L 1500 1500 L 0 1500 Z M 0 0 " clip-rule="nonzero"/></clipPath><clipPath id="5e378ffc8b"><path d="M 75 0 L 1425 0 C 1466.421875 0 1500 33.578125 1500 75 L 1500 1425 C 1500 1466.421875 1466.421875 1500 1425 1500 L 75 1500 C 33.578125 1500 0 1466.421875 0 1425 L 0 75 C 0 33.578125 33.578125 0 75 0 Z M 75 0 " clip-rule="nonzero"/></clipPath><clipPath id="75fd76da3e"><rect x="0" width="1500" y="0" height="1500"/></clipPath><clipPath id="177eb28e2d"><path d="M 531 725.25 L 969 725.25 L 969 1452.984375 L 531 1452.984375 Z M 531 725.25 " clip-rule="nonzero"/></clipPath><clipPath id="f74125cf5a"><path d="M 684 725.25 L 816 725.25 C 842.757812 725.25 865.519531 744.757812 869.613281 771.203125 L 967.886719 1406.070312 C 969.667969 1417.566406 966.332031 1429.269531 958.761719 1438.105469 C 951.1875 1446.9375 940.136719 1452.023438 928.5 1452.023438 L 571.5 1452.023438 C 559.863281 1452.023438 548.8125 1446.9375 541.238281 1438.105469 C 533.667969 1429.269531 530.332031 1417.566406 532.113281 1406.070312 L 630.386719 771.203125 C 634.480469 744.757812 657.242188 725.25 684 725.25 Z M 684 725.25 " clip-rule="nonzero"/></clipPath><clipPath id="7086cc36da"><path d="M 0 0.25 L 438 0.25 L 438 727 L 0 727 Z M 0 0.25 " clip-rule="nonzero"/></clipPath><clipPath id="7fa1af3e25"><path d="M 153 0.25 L 285 0.25 C 311.757812 0.25 334.519531 19.757812 338.613281 46.203125 L 436.886719 681.070312 C 438.667969 692.566406 435.332031 704.269531 427.761719 713.105469 C 420.1875 721.9375 409.136719 727.023438 397.5 727.023438 L 40.5 727.023438 C 28.863281 727.023438 17.8125 721.9375 10.238281 713.105469 C 2.667969 704.269531 -0.667969 692.566406 1.113281 681.070312 L 99.386719 46.203125 C 103.480469 19.757812 126.242188 0.25 153 0.25 Z M 153 0.25 " clip-rule="nonzero"/></clipPath><clipPath id="fc128644ec"><rect x="0" width="438" y="0" height="728"/></clipPath><clipPath id="373b79a363"><path d="M 364 97 L 1136 97 L 1136 832.875 L 364 832.875 Z M 364 97 " clip-rule="nonzero"/></clipPath><clipPath id="bfe2c4dbd5"><path d="M 768.09375 111.101562 L 825.816406 311.839844 C 837.070312 350.980469 868.105469 381.308594 907.496094 391.660156 L 1122.484375 448.160156 C 1130.070312 450.152344 1135.359375 457.011719 1135.359375 464.855469 C 1135.359375 472.695312 1130.070312 479.554688 1122.484375 481.546875 L 907.496094 538.046875 C 868.105469 548.398438 837.070312 578.726562 825.816406 617.867188 L 768.09375 818.605469 C 765.765625 826.695312 758.363281 832.273438 749.941406 832.273438 C 741.519531 832.273438 734.117188 826.695312 731.789062 818.605469 L 674.066406 617.867188 C 662.808594 578.726562 631.777344 548.398438 592.386719 538.046875 L 377.398438 481.546875 C 369.8125 479.554688 364.523438 472.695312 364.523438 464.855469 C 364.523438 457.011719 369.8125 450.152344 377.398438 448.160156 L 592.386719 391.660156 C 631.777344 381.308594 662.808594 350.980469 674.066406 311.839844 L 731.789062 111.101562 C 734.117188 103.011719 741.519531 97.433594 749.941406 97.433594 C 758.363281 97.433594 765.765625 103.011719 768.09375 111.101562 Z M 768.09375 111.101562 " clip-rule="nonzero"/></clipPath><clipPath id="7a6d8babe2"><path d="M 0.320312 0.199219 L 771.441406 0.199219 L 771.441406 735.320312 L 0.320312 735.320312 Z M 0.320312 0.199219 " clip-rule="nonzero"/></clipPath><clipPath id="9d3c5160ff"><path d="M 404.09375 14.101562 L 461.816406 214.839844 C 473.070312 253.980469 504.105469 284.308594 543.496094 294.660156 L 758.484375 351.160156 C 766.070312 353.152344 771.359375 360.011719 771.359375 367.855469 C 771.359375 375.695312 766.070312 382.554688 758.484375 384.546875 L 543.496094 441.046875 C 504.105469 451.398438 473.070312 481.726562 461.816406 520.867188 L 404.09375 721.605469 C 401.765625 729.695312 394.363281 735.273438 385.941406 735.273438 C 377.519531 735.273438 370.117188 729.695312 367.789062 721.605469 L 310.066406 520.867188 C 298.808594 481.726562 267.777344 451.398438 228.386719 441.046875 L 13.398438 384.546875 C 5.8125 382.554688 0.523438 375.695312 0.523438 367.855469 C 0.523438 360.011719 5.8125 353.152344 13.398438 351.160156 L 228.386719 294.660156 C 267.777344 284.308594 298.808594 253.980469 310.066406 214.839844 L 367.789062 14.101562 C 370.117188 6.011719 377.519531 0.433594 385.941406 0.433594 C 394.363281 0.433594 401.765625 6.011719 404.09375 14.101562 Z M 404.09375 14.101562 " clip-rule="nonzero"/></clipPath><clipPath id="0ea043db1a"><rect x="0" width="772" y="0" height="736"/></clipPath><clipPath id="636168970c"><path d="M 364 97 L 1136 97 L 1136 833 L 364 833 Z M 364 97 " clip-rule="nonzero"/></clipPath><clipPath id="e5435419fe"><path d="M 768.148438 111.101562 L 825.871094 311.835938 C 837.125 350.976562 868.160156 381.304688 907.550781 391.65625 L 1122.535156 448.15625 C 1130.121094 450.148438 1135.410156 457.003906 1135.410156 464.847656 C 1135.410156 472.691406 1130.121094 479.550781 1122.535156 481.542969 L 907.550781 538.042969 C 868.160156 548.394531 837.125 578.71875 825.871094 617.863281 L 768.148438 818.59375 C 765.820312 826.6875 758.417969 832.261719 749.996094 832.261719 C 741.574219 832.261719 734.171875 826.6875 731.84375 818.59375 L 674.121094 617.863281 C 662.867188 578.71875 631.835938 548.394531 592.445312 538.042969 L 377.457031 481.542969 C 369.871094 479.550781 364.585938 472.691406 364.585938 464.847656 C 364.585938 457.003906 369.871094 450.148438 377.457031 448.15625 L 592.445312 391.65625 C 631.835938 381.304688 662.867188 350.976562 674.121094 311.835938 L 731.84375 111.101562 C 734.171875 103.007812 741.574219 97.433594 749.996094 97.433594 C 758.417969 97.433594 765.820312 103.007812 768.148438 111.101562 Z M 768.148438 111.101562 " clip-rule="nonzero"/></clipPath></defs><g clip-path="url(#5393e4b86b)"><g transform="matrix(1, 0, 0, 1, 0, 0.000000000000112861)"><g clip-path="url(#75fd76da3e)"><g clip-path="url(#80cf8b42ee)"><g clip-path="url(#5e378ffc8b)"><rect x="-330" width="2160" fill="#ffffff" height="2159.999904" y="-329.999985" fill-opacity="1"/></g></g></g></g></g><g clip-path="url(#177eb28e2d)"><g clip-path="url(#f74125cf5a)"><g transform="matrix(1, 0, 0, 1, 531, 725)"><g clip-path="url(#fc128644ec)"><g clip-path="url(#7086cc36da)"><g clip-path="url(#7fa1af3e25)"><path fill="#000000" d="M -6 0.25 L 444 0.25 L 444 726.226562 L -6 726.226562 Z M -6 0.25 " fill-opacity="1" fill-rule="nonzero"/></g></g></g></g></g></g><g clip-path="url(#373b79a363)"><g clip-path="url(#bfe2c4dbd5)"><g transform="matrix(1, 0, 0, 1, 364, 97)"><g clip-path="url(#0ea043db1a)"><g clip-path="url(#7a6d8babe2)"><g clip-path="url(#9d3c5160ff)"><rect x="-694" width="2160" fill="#00bf63" height="2159.999904" y="-426.999985" fill-opacity="1"/></g></g></g></g></g></g><g clip-path="url(#636168970c)"><g clip-path="url(#e5435419fe)"><path stroke-linecap="butt" transform="matrix(0.75, 0, 0, 0.75, 301.871959, 47.97792)" fill="none" stroke-linejoin="miter" d="M 621.702024 84.164864 L 698.665573 351.81072 C 713.670782 403.998225 755.050994 444.435728 807.571832 458.237813 L 1094.21769 533.565944 C 1104.332274 536.227403 1111.384358 545.368029 1111.384358 555.826363 C 1111.384358 566.284697 1104.332274 575.430531 1094.21769 578.086782 L 807.571832 653.420121 C 755.050994 667.222206 713.670782 707.654501 698.665573 759.847214 L 621.702024 1027.487862 C 618.597857 1038.27953 608.728065 1045.711822 597.498897 1045.711822 C 586.26973 1045.711822 576.399937 1038.27953 573.29577 1027.487862 L 496.332222 759.847214 C 481.327012 707.654501 439.952009 667.222206 387.431171 653.420121 L 100.780105 578.086782 C 90.66552 575.430531 83.618645 566.284697 83.618645 555.826363 C 83.618645 545.368029 90.66552 536.227403 100.780105 533.565944 L 387.431171 458.237813 C 439.952009 444.435728 481.327012 403.998225 496.332222 351.81072 L 573.29577 84.164864 C 576.399937 73.373196 586.26973 65.940904 597.498897 65.940904 C 608.728065 65.940904 618.597857 73.373196 621.702024 84.164864 Z M 621.702024 84.164864 " stroke="#ffffff" stroke-width="60" stroke-opacity="1" stroke-miterlimit="4"/></g></g></svg>